<svg width="53" height="53" viewBox="0 0 53 53" fill="none" xmlns="http://www.w3.org/2000/svg">
<g filter="url(#filter0_d_281_702)">
<path fill-rule="evenodd" clip-rule="evenodd" d="M33.7999 17.2771V1.38435C33.3491 1.23222 32.8871 1.09315 32.4242 0.964351C30.5799 0.471551 28.6386 0.199951 26.6319 0.199951C25.7742 0.199951 24.9314 0.253151 24.0998 0.349284C22.066 0.578885 20.1163 1.08662 18.2823 1.82115C18.2823 1.82115 33.3939 16.7227 33.7999 17.2771ZM45.9708 11.2954C46.2106 11.7107 46.4365 12.1335 46.6484 12.5563L35.3662 23.7946C35.4792 23.1198 35.3662 1.93873 35.3662 1.93873C37.1834 2.70593 38.9185 3.727 40.5229 4.9954C41.1781 5.51247 41.8137 6.07153 42.4194 6.67447C43.8372 8.0838 45.0132 9.64527 45.9708 11.2954ZM27.9017 13.8341L16.6224 2.59401C16.1912 2.80867 15.7674 3.03361 15.3549 3.27254C13.6936 4.22361 12.1284 5.39867 10.7144 6.80707C10.103 7.41281 9.54771 8.04841 9.02971 8.69801C7.75571 10.2959 6.73184 12.0272 5.95997 13.8379C5.95997 13.8379 27.2213 13.7259 27.9017 13.8341ZM21.3381 15.432H5.38553C5.23153 15.8781 5.09526 16.3382 4.96833 16.8012C4.47086 18.6408 4.2002 20.5737 4.2002 22.572C4.2002 23.426 4.2534 24.2669 4.35046 25.0938C4.58006 27.1229 5.0878 29.0652 5.8298 30.887C5.8298 30.887 20.7799 15.8296 21.3381 15.432ZM6.53712 32.5316L17.8127 21.2915C17.7044 21.9655 17.8174 42.8111 17.8192 43.1488L17.8192 43.1494L17.8192 43.1499L17.8192 43.1502L17.8193 43.153C15.9983 42.3867 14.267 41.3703 12.6626 40.0991C12.0074 39.5783 11.3709 39.0239 10.7661 38.42C9.34739 37.0098 8.16765 35.4483 7.21472 33.7954C6.97672 33.3791 6.74619 32.9619 6.53712 32.5316ZM38.5796 31.485C35.82 33.3317 33.9268 36.3722 33.6388 39.8678L25.1895 31.4499C25.576 31.5145 32.5863 31.5052 38.5796 31.485ZM42.7993 29.7781H31.8594C32.4185 29.3759 47.3714 14.3193 47.3714 14.3193C48.1125 16.144 48.6165 18.0881 48.8489 20.1144C48.945 20.9423 49.0001 21.7841 49.0001 22.6391C49.0001 24.6383 48.7275 26.5656 48.2273 28.4071C48.1022 28.8681 47.9631 29.3283 47.8119 29.7781H46.8019C46.1525 29.661 45.4837 29.5999 44.8006 29.5999C44.1175 29.5999 43.4486 29.661 42.7993 29.7781ZM33.6832 42.1673C33.7481 42.7001 33.8503 43.2213 33.9873 43.7282C32.4292 44.2772 30.7937 44.6575 29.0959 44.8497C28.268 44.9467 27.4234 44.9999 26.5684 44.9999C24.5618 44.9999 22.6232 44.7311 20.7762 44.2299C20.3142 44.1058 19.854 43.9677 19.4014 43.8146V27.9199C19.7332 28.3819 30.0751 38.6036 33.6832 42.1673Z" fill="#6B7CFF"/>
</g>
<defs>
<filter id="filter0_d_281_702" x="0.200195" y="0.199951" width="52.7998" height="52.8" filterUnits="userSpaceOnUse" color-interpolation-filters="sRGB">
<feFlood flood-opacity="0" result="BackgroundImageFix"/>
<feColorMatrix in="SourceAlpha" type="matrix" values="0 0 0 0 0 0 0 0 0 0 0 0 0 0 0 0 0 0 127 0" result="hardAlpha"/>
<feOffset dy="4"/>
<feGaussianBlur stdDeviation="2"/>
<feComposite in2="hardAlpha" operator="out"/>
<feColorMatrix type="matrix" values="0 0 0 0 0 0 0 0 0 0 0 0 0 0 0 0 0 0 0.25 0"/>
<feBlend mode="normal" in2="BackgroundImageFix" result="effect1_dropShadow_281_702"/>
<feBlend mode="normal" in="SourceGraphic" in2="effect1_dropShadow_281_702" result="shape"/>
</filter>
</defs>
</svg>
